<mxfile host="app.diagrams.net" modified="2024-02-03T08:39:36.092Z" agent="Mozilla/5.0 (X11; Ubuntu; Linux x86_64; rv:122.0) Gecko/20100101 Firefox/122.0" version="23.0.2" etag="auGXDX7FGtHiTrHfeuOn" type="github">
  <diagram name="Страница — 1" id="jlLP26axT4dyGCa8Fda7">
    <mxGraphModel>
      <root>
        <mxCell id="0" />
        <mxCell id="1" parent="0" />
      </root>
    </mxGraphModel>
  </diagram>
</mxfile>
